<svg xmlns="http://www.w3.org/2000/svg" version="1.1" xmlns:xlink="http://www.w3.org/1999/xlink" xmlns:svgjs="http://svgjs.dev/svgjs" width="100%" height="100%" viewBox="0 0 1000 600"><rect width="1000" height="600" x="0" y="0" fill="#141a46"/><g><rect width="333.3333333333333" height="333.3333333333333" y="109.08250574099645" fill="#ec8b5e" transform="matrix(1.4390925846679021,0,0,1.439092584667902,0,-96.82859846713086)" x="86.86029052734375"/><path d="M243.1863000596842 200.74917758453452L263.8676140564012 200.74917758453452L263.8676140564012 350.74917573908533L243.1863000596842 350.74917573908533L243.1863000596842 200.74917758453452Z " fill="#141a46" transform="matrix(1.4390925846679021,0,0,1.439092584667902,0,-96.82859846713086)"/><path d="M583.4100443981541 350.74917573908533L547.4898674564879 287.1934417901102L524.2082712905931 287.1934417901102L524.2082712905931 350.74917573908533L503.5269572938761 350.74917573908533L503.5269572938761 200.74917758453452L542.9242557408384 200.74917758453452Q571.0133503357945 200.74917758453452 585.4963173013317 211.42242881383436Q599.9792842668688 222.0956800431342 599.9792842668688 243.20029578832194L599.9792842668688 243.20029578832194Q599.9792842668688 258.8926963209186 591.906315206747 268.6891082141003Q583.8635819858014 278.485520107282 567.5362288304985 283.4744335714023L567.5362288304985 283.4744335714023L608.0220174878143 350.74917573908533L583.4100443981541 350.74917573908533ZM524.2082712905931 271.28939038327815L545.1012361615453 271.28939038327815Q561.4285893168483 271.28939038327815 569.7132092512056 264.637505764451Q577.9675933463865 258.0158569848004 577.9675933463865 243.20029578832194L577.9675933463865 243.20029578832194Q577.9675933463865 229.26157392796154 569.5922658944996 223.06322689678177Q561.2169384426129 216.86487986560198 542.712604866603 216.86487986560198L542.712604866603 216.86487986560198L524.2082712905931 216.86487986560198L524.2082712905931 271.28939038327815Z " fill="#ec8b5e" transform="matrix(1.4390925846679021,0,0,1.439092584667902,0,-96.82859846713086)"/></g></svg>